# 3ds Max Wavefront OBJ Exporter v0.97b - (c)2007 guruware
# 创建的文件:05.02.2017 01:19:46

mtllib BA_Sea_01.mtl

#
# object Box001
#

#
# object Box002
#

v  -50.0006 -20.0077 -50.0127
v  -50.0006 -20.0077 49.9873
v  49.9994 -20.0077 49.9873
v  49.9994 -20.0077 -50.0127
v  49.9994 -50.0077 49.9873
v  -50.0006 -50.0077 49.9873
v  -50.0006 -50.0077 -50.0127
v  49.9994 -50.0077 -50.0127
# 8 vertices

vn 0.0000 1.0000 -0.0000
vn 0.0000 -1.0000 -0.0000
vn 0.0000 0.0000 1.0000
vn 1.0000 0.0000 -0.0000
vn 0.0000 0.0000 -1.0000
vn -1.0000 0.0000 -0.0000
# 6 vertex normals

vt 0.0000 1.0000 0.0000
vt 0.0000 0.0000 0.0000
vt 1.0000 0.0000 0.0000
vt 1.0000 1.0000 0.0000
# 4 texture coords

g Box002
usemtl wire_087225087
s 2
f 1/1/1 2/2/1 3/3/1 4/4/1 
s 4
f 5/2/2 6/3/2 7/4/2 8/1/2 
s 8
f 3/3/3 2/2/3 6/1/3 5/4/3 
s 16
f 4/3/4 3/2/4 5/1/4 8/4/4 
s 32
f 1/3/5 4/2/5 8/1/5 7/4/5 
s 64
f 2/3/6 1/2/6 7/1/6 6/4/6 
# 6 polygons

#
# object Box003
#

v  -49.9963 0.0000 -50.0039
v  -49.9963 0.0000 49.9961
v  50.0037 0.0000 49.9961
v  50.0037 0.0000 -50.0039
v  50.0037 -20.0000 49.9961
v  -49.9963 -20.0000 49.9961
v  -49.9963 -20.0000 -50.0039
v  50.0037 -20.0000 -50.0039
# 8 vertices

vn 0.0000 1.0000 -0.0000
vn 0.0000 -1.0000 -0.0000
vn 0.0000 0.0000 1.0000
vn 1.0000 0.0000 -0.0000
vn 0.0000 0.0000 -1.0000
vn -1.0000 0.0000 -0.0000
# 6 vertex normals

vt 0.0000 1.0000 0.0000
vt 0.0000 0.0000 0.0000
vt 1.0000 0.0000 0.0000
vt 1.0000 1.0000 0.0000
# 4 texture coords

g Box003
usemtl 02___Default
s 2
f 9/5/7 10/6/7 11/7/7 12/8/7 
s 4
f 13/6/8 14/7/8 15/8/8 16/5/8 
s 8
f 11/7/9 10/6/9 14/5/9 13/8/9 
s 16
f 12/7/10 11/6/10 13/5/10 16/8/10 
s 32
f 9/7/11 12/6/11 16/5/11 15/8/11 
s 64
f 10/7/12 9/6/12 15/5/12 14/8/12 
# 6 polygons

