# 3ds Max Wavefront OBJ Exporter v0.97b - (c)2007 guruware
# 创建的文件:02.02.2017 01:21:38

mtllib BA_Archer_01.mtl

#
# object Box001
#

v  -23.8378 71.7971 -36.9989
v  -23.8378 151.7971 -36.9989
v  26.1622 151.7971 -36.9989
v  26.1622 71.7971 -36.9989
v  -23.8378 71.7971 33.0011
v  26.1622 71.7971 33.0011
v  26.1622 151.7971 33.0011
v  -23.8378 151.7971 33.0011
v  -14.4443 158.4431 -18.8505
v  -14.4443 193.4431 -18.8505
v  20.5557 193.4431 -18.8505
v  20.5557 158.4431 -18.8505
v  -14.4443 158.4431 16.1495
v  20.5557 158.4431 16.1495
v  20.5557 193.4431 16.1495
v  -14.4443 193.4431 16.1495
v  0.9993 132.2476 -56.3440
v  0.9578 147.2475 -56.3470
v  -0.5175 147.2475 -36.4015
v  -0.4760 132.2476 -36.3984
v  -58.8370 132.0814 -60.7699
v  -60.3124 132.0814 -40.8243
v  -60.3538 147.0813 -40.8274
v  -58.8785 147.0813 -60.7729
v  -9.7591 138.6621 18.9389
v  -9.7591 148.8347 29.9624
v  10.2409 148.8347 29.9624
v  10.2409 138.6621 18.9389
v  -9.7591 94.5682 59.6295
v  10.2409 94.5682 59.6295
v  10.2409 104.7408 70.6530
v  -9.7591 104.7408 70.6530
v  -11.5135 1.6619 25.5834
v  13.4865 1.6619 25.5834
v  13.4865 71.6619 25.5834
v  -11.5135 71.6619 25.5834
v  -11.5135 1.6619 10.5834
v  -11.5135 71.6619 10.5834
v  13.4865 71.6619 10.5834
v  13.4865 1.6619 10.5834
v  -11.6643 1.7030 -15.3799
v  13.3357 1.7030 -15.3799
v  13.3357 71.7030 -15.3799
v  -11.6643 71.7030 -15.3799
v  -11.6643 1.7030 -30.3799
v  -11.6643 71.7030 -30.3799
v  13.3357 71.7030 -30.3799
v  13.3357 1.7030 -30.3799
# 48 vertices

vn 0.0000 0.0000 -1.0000
vn 0.0000 -0.0000 1.0000
vn 0.0000 -1.0000 -0.0000
vn 1.0000 0.0000 -0.0000
vn 0.0000 1.0000 0.0000
vn -1.0000 0.0000 -0.0000
vn 0.9973 0.0028 0.0738
vn -0.9973 -0.0028 -0.0738
vn 0.0028 -1.0000 0.0002
vn -0.0738 0.0000 0.9973
vn -0.0028 1.0000 -0.0002
vn 0.0738 -0.0000 -0.9973
vn 0.0000 0.7349 -0.6782
vn 0.0000 -0.7349 0.6782
vn 0.0000 -0.6782 -0.7349
vn 0.0000 0.6782 0.7349
# 16 vertex normals

vt 1.0000 0.0000 0.0000
vt 1.0000 1.0000 0.0000
vt 0.0000 1.0000 0.0000
vt 0.0000 0.0000 0.0000
# 4 texture coords

g Box001
usemtl wire_224086086
s 2
f 1/1/1 2/2/1 3/3/1 4/4/1 
s 4
f 5/4/2 6/1/2 7/2/2 8/3/2 
s 8
f 1/4/3 4/1/3 6/2/3 5/3/3 
s 16
f 4/4/4 3/1/4 7/2/4 6/3/4 
s 32
f 3/4/5 2/1/5 8/2/5 7/3/5 
s 64
f 2/4/6 1/1/6 5/2/6 8/3/6 
s 2
f 9/1/1 10/2/1 11/3/1 12/4/1 
s 4
f 13/4/2 14/1/2 15/2/2 16/3/2 
s 8
f 9/4/3 12/1/3 14/2/3 13/3/3 
s 16
f 12/4/4 11/1/4 15/2/4 14/3/4 
s 32
f 11/4/5 10/1/5 16/2/5 15/3/5 
s 64
f 10/4/6 9/1/6 13/2/6 16/3/6 
s 2
f 17/1/7 18/2/7 19/3/7 20/4/7 
s 4
f 21/4/8 22/1/8 23/2/8 24/3/8 
s 8
f 17/4/9 20/1/9 22/2/9 21/3/9 
s 16
f 20/4/10 19/1/10 23/2/10 22/3/10 
s 32
f 19/4/11 18/1/11 24/2/11 23/3/11 
s 64
f 18/4/12 17/1/12 21/2/12 24/3/12 
s 2
f 25/1/13 26/2/13 27/3/13 28/4/13 
s 4
f 29/4/14 30/1/14 31/2/14 32/3/14 
s 8
f 25/4/15 28/1/15 30/2/15 29/3/15 
s 16
f 28/4/4 27/1/4 31/2/4 30/3/4 
s 32
f 27/4/16 26/1/16 32/2/16 31/3/16 
s 64
f 26/4/6 25/1/6 29/2/6 32/3/6 
s 2
f 33/1/2 34/4/2 35/3/2 36/2/2 
s 4
f 37/4/1 38/3/1 39/2/1 40/1/1 
s 8
f 33/4/3 37/3/3 40/2/3 34/1/3 
s 16
f 34/4/4 40/3/4 39/2/4 35/1/4 
s 32
f 35/4/5 39/3/5 38/2/5 36/1/5 
s 64
f 36/4/6 38/3/6 37/2/6 33/1/6 
s 2
f 41/1/2 42/4/2 43/3/2 44/2/2 
s 4
f 45/4/1 46/3/1 47/2/1 48/1/1 
s 8
f 41/4/3 45/3/3 48/2/3 42/1/3 
s 16
f 42/4/4 48/3/4 47/2/4 43/1/4 
s 32
f 43/4/5 47/3/5 46/2/5 44/1/5 
s 64
f 44/4/6 46/3/6 45/2/6 41/1/6 
# 36 polygons

#
# object Box008
#

v  -63.4064 97.4653 -51.7291
v  -63.4064 182.6548 -51.7291
v  -63.4064 182.6548 -44.2124
v  -63.4064 97.4653 -44.2124
v  -71.5495 97.4653 -51.7291
v  -71.5495 97.4653 -44.2124
v  -71.5495 182.6548 -44.2124
v  -71.5495 182.6548 -51.7291
v  -71.5602 177.5056 -50.2045
v  -40.2440 228.3451 -50.2044
v  -34.0303 224.5175 -50.2044
v  -65.3465 173.6780 -50.2045
v  -71.5602 177.5056 -44.8968
v  -65.3465 173.6780 -44.8968
v  -34.0303 224.5175 -44.8968
v  -40.2440 228.3451 -44.8968
v  -43.4806 47.8126 -50.8308
v  -71.7177 100.4246 -50.8308
v  -65.2874 103.8758 -50.8308
v  -37.0502 51.2638 -50.8308
v  -43.4806 47.8126 -45.5232
v  -37.0502 51.2638 -45.5232
v  -65.2874 103.8758 -45.5232
v  -71.7177 100.4246 -45.5232
# 24 vertices

vn 1.0000 0.0000 0.0000
vn -1.0000 -0.0000 -0.0000
vn 0.0000 -1.0000 0.0000
vn -0.0000 0.0000 1.0000
vn -0.0000 1.0000 -0.0000
vn 0.0000 0.0000 -1.0000
vn -0.0000 -0.0000 1.0000
vn -0.5245 -0.8514 -0.0000
vn 0.8514 -0.5245 0.0000
vn 0.5245 0.8514 0.0000
vn -0.8514 0.5245 -0.0000
vn -0.0000 0.0000 -1.0000
vn 0.0000 -0.0000 1.0000
vn 0.4729 -0.8811 -0.0000
vn 0.8811 0.4729 -0.0000
vn -0.4729 0.8811 0.0000
vn -0.8811 -0.4729 0.0000
# 17 vertex normals

vt 1.0000 0.0000 0.0000
vt 1.0000 1.0000 0.0000
vt 0.0000 1.0000 0.0000
vt 0.0000 0.0000 0.0000
# 4 texture coords

g Box008
usemtl wire_228214153
s 2
f 49/5/17 50/6/17 51/7/17 52/8/17 
s 4
f 53/8/18 54/5/18 55/6/18 56/7/18 
s 8
f 49/8/19 52/5/19 54/6/19 53/7/19 
s 16
f 52/8/20 51/5/20 55/6/20 54/7/20 
s 32
f 51/8/21 50/5/21 56/6/21 55/7/21 
s 64
f 50/8/22 49/5/22 53/6/22 56/7/22 
s 2
f 57/5/22 58/6/22 59/7/22 60/8/22 
s 4
f 61/8/23 62/5/23 63/6/23 64/7/23 
s 8
f 57/8/24 60/5/24 62/6/24 61/7/24 
s 16
f 60/8/25 59/5/25 63/6/25 62/7/25 
s 32
f 59/8/26 58/5/26 64/6/26 63/7/26 
s 64
f 58/8/27 57/5/27 61/6/27 64/7/27 
s 2
f 65/5/28 66/6/28 67/7/28 68/8/28 
s 4
f 69/8/29 70/5/29 71/6/29 72/7/29 
s 8
f 65/8/30 68/5/30 70/6/30 69/7/30 
s 16
f 68/8/31 67/5/31 71/6/31 70/7/31 
s 32
f 67/8/32 66/5/32 72/6/32 71/7/32 
s 64
f 66/8/33 65/5/33 69/6/33 72/7/33 
# 18 polygons

#
# object Box009
#

v  -62.4980 94.6418 63.4245
v  -62.4980 92.6514 63.4245
v  46.3081 92.6514 63.4245
v  46.3081 94.6418 63.4245
v  46.3081 92.6514 60.7707
v  -62.4980 92.6514 60.7707
v  -62.4980 94.6418 60.7707
v  46.3081 94.6418 60.7707
# 8 vertices

vn 0.0000 -0.0000 1.0000
vn 0.0000 0.0000 -1.0000
vn 0.0000 -1.0000 -0.0000
vn 1.0000 0.0000 -0.0000
vn 0.0000 1.0000 0.0000
vn -1.0000 0.0000 -0.0000
# 6 vertex normals

vt 0.0000 1.0000 0.0000
vt 0.0000 0.0000 0.0000
vt 1.0000 0.0000 0.0000
vt 1.0000 1.0000 0.0000
# 4 texture coords

g Box009
usemtl wire_154215229
s 2
f 73/9/34 74/10/34 75/11/34 76/12/34 
s 4
f 77/10/35 78/11/35 79/12/35 80/9/35 
s 8
f 75/11/36 74/10/36 78/9/36 77/12/36 
s 16
f 76/11/37 75/10/37 77/9/37 80/12/37 
s 32
f 73/11/38 76/10/38 80/9/38 79/12/38 
s 64
f 74/11/39 73/10/39 79/9/39 78/12/39 
# 6 polygons

