# 3ds Max Wavefront OBJ Exporter v0.97b - (c)2007 guruware
# 创建的文件:05.02.2017 01:10:34

mtllib BA_Mount_01.mtl

#
# object Pyramid001
#

v  0.0007 50.0050 0.0022
v  -49.9993 0.0050 50.0022
v  50.0007 0.0050 50.0022
v  50.0007 0.0050 -49.9978
v  -49.9993 0.0050 -49.9978
v  0.0007 0.0050 0.0022
# 6 vertices

vn 0.0000 0.7071 0.7071
vn 0.7071 0.7071 -0.0000
vn 0.0000 0.7071 -0.7071
vn -0.7071 0.7071 -0.0000
vn 0.0000 -1.0000 -0.0000
# 5 vertex normals

vt 0.5000 1.0000 0.0000
vt 0.0000 0.0000 0.0000
vt 1.0000 0.0000 0.0000
vt 0.0000 1.0000 0.0000
vt 0.5000 0.5000 0.0000
vt 1.0000 1.0000 0.0000
# 6 texture coords

g Pyramid001
usemtl 01___Default
s 4
f 1/1/1 2/2/1 3/3/1 
s 2
f 1/1/2 3/2/2 4/3/2 
s 16
f 1/1/3 4/2/3 5/3/3 
s 32
f 1/1/4 5/2/4 2/3/4 
s 8
f 2/4/5 6/5/5 3/6/5 
f 3/6/5 6/5/5 4/3/5 
f 4/3/5 6/5/5 5/2/5 
f 5/2/5 6/5/5 2/4/5 
# 0 polygons - 8 triangles

#
# object Box001
#

#
# object Box002
#

v  -50.0006 0.0000 -50.0126
v  -50.0006 0.0000 49.9874
v  49.9994 0.0000 49.9874
v  49.9994 0.0000 -50.0126
v  49.9994 -50.0000 49.9874
v  -50.0006 -50.0000 49.9874
v  -50.0006 -50.0000 -50.0126
v  49.9994 -50.0000 -50.0126
# 8 vertices

vn 0.0000 1.0000 -0.0000
vn 0.0000 -1.0000 -0.0000
vn 0.0000 0.0000 1.0000
vn 1.0000 0.0000 -0.0000
vn 0.0000 0.0000 -1.0000
vn -1.0000 0.0000 -0.0000
# 6 vertex normals

vt 0.0000 1.0000 0.0000
vt 0.0000 0.0000 0.0000
vt 1.0000 0.0000 0.0000
vt 1.0000 1.0000 0.0000
# 4 texture coords

g Box002
usemtl wire_087225087
s 2
f 7/7/6 8/8/6 9/9/6 10/10/6 
s 4
f 11/8/7 12/9/7 13/10/7 14/7/7 
s 8
f 9/9/8 8/8/8 12/7/8 11/10/8 
s 16
f 10/9/9 9/8/9 11/7/9 14/10/9 
s 32
f 7/9/10 10/8/10 14/7/10 13/10/10 
s 64
f 8/9/11 7/8/11 13/7/11 12/10/11 
# 6 polygons

